#!OML:ASF G:\ViconDB\ViconDB\414\test\team2\shane.ASF
:FULLY-SPECIFIED
:DEGREES
377
root 6.57672 16.6879 26.1929 -10.3311 3.97427 -3.48745
lowerback 7.1137 -4.33075 -2.13268
upperback 3.38038 -5.87647 4.03804
thorax 0.173955 -3.0236 5.75574
lowerneck -18.3186 0.0937523 -7.69634
upperneck 20.396 0.634888 7.21431
head 9.39551 0.516616 3.88185
rclavicle -1.25638e-013 5.80451e-014
rhumerus -47.0834 11.0779 -86.995
rradius 35.9314
rwrist 27.2294
rhand -27.9114 -12.9941
rfingers 7.12502
rthumb -1.30032 -42.9699
lclavicle -1.25638e-013 5.80451e-014
lhumerus -26.4235 -27.2981 97.4642
lradius 30.8087
lwrist -13.2024
lhand -40.1705 7.92075
lfingers 7.12502
lthumb -13.1321 37.4872
rfemur -22.601 -9.57228 17.4794
rtibia 37.2996
rfoot -6.19174 5.83682
rtoes -16.5385
lfemur 26.4972 4.6535 -13.0446
ltibia 4.90303
lfoot -22.3692 -9.64496
ltoes -7.84588
378
root 6.5751 16.6519 26.337 -10.1589 4.24662 -3.44193
lowerback 7.23389 -4.47562 -2.29819
upperback 3.30006 -6.07821 4.19564
thorax 0.0839519 -3.12639 6.03895
lowerneck -18.2885 0.220316 -7.43317
upperneck 20.1328 0.806816 6.93664
head 9.28726 0.588424 3.75285
rclavicle 3.32592e-014 -4.85035e-014
rhumerus -47.138 10.1107 -86.1867
rradius 36.2011
rwrist 28.0745
rhand -28.2208 -12.9331
rfingers 7.12502
rthumb -1.59914 -42.9068
lclavicle 3.32592e-014 -4.85035e-014
lhumerus -25.985 -28.2192 97.236
lradius 32.0293
lwrist -13.6387
lhand -40.1315 7.90955
lfingers 7.12502
lthumb -13.0946 37.4785
rfemur -23.3939 -9.89409 17.409
rtibia 36.4602
rfoot -4.19661 5.41943
rtoes -16.7824
lfemur 29.1354 4.32415 -13.1005
ltibia -6.36111e-014
lfoot -20.7265 -9.78919
ltoes -7.78992
379
root 6.5774 16.6195 26.4795 -10.0678 4.5761 -3.39399
lowerback 7.58544 -4.59304 -2.30067
upperback 3.13322 -6.2294 4.2924
thorax -0.25295 -3.19204 6.19342
lowerneck -17.9834 0.255122 -7.39403
upperneck 19.8195 0.840576 6.90008
head 9.12063 0.602634 3.72331
rclavicle 3.76448e-014 -1.59028e-014
rhumerus -47.6066 10.1608 -86.1583
rradius 37.0835
rwrist 26.1241
rhand -28.0939 -13.6484
rfingers 7.12502
rthumb -1.47658 -43.623
lclavicle 3.76448e-014 -1.59028e-014
lhumerus -26.0112 -30.2144 97.3972
lradius 33.567
lwrist -12.0365
lhand -40.4431 7.83924
lfingers 7.12502
lthumb -13.3949 37.3886
rfemur -24.1398 -10.4487 17.3248
rtibia 35.9033
rfoot -2.32088 5.34902
rtoes -15.7764
lfemur 29.5649 3.93334 -13.165
ltibia 0
lfoot -21.5069 -9.85208
ltoes -7.35742
380
root 6.57225 16.5713 26.6277 -9.99751 4.84592 -3.58308
lowerback 7.82244 -4.66886 -2.06566
upperback 3.01424 -6.30734 4.43529
thorax -0.506607 -3.22139 6.24721
lowerneck -17.7167 0.274215 -7.2025
upperneck 19.4858 0.849331 6.70593
head 8.95915 0.599845 3.61066
rclavicle 3.76448e-014 -1.59028e-014
rhumerus -47.6066 10.1608 -86.1583
rradius 37.0835
rwrist 26.1241
rhand -28.0939 -13.6484
rfingers 7.12502
rthumb -1.47658 -43.623
lclavicle -7.09537e-014 1.19271e-014
lhumerus -25.7181 -31.6078 97.3498
lradius 34.8253
lwrist -11.7281
lhand -40.5557 7.84275
lfingers 7.12502
lthumb -13.5035 37.385
rfemur -24.8726 -10.7715 17.5101
rtibia 35.6201
rfoot -0.954988 5.10368
rtoes -14.9518
lfemur 30.05 3.54319 -12.9524
ltibia -5.40694e-014
lfoot -22.5155 -9.64073
ltoes -7.62711
381
root 6.56055 16.527 26.783 -9.8769 5.11341 -3.72537
lowerback 7.96783 -4.73991 -2.0477
upperback 2.91868 -6.39509 4.62708
thorax -0.653933 -3.26211 6.46479
lowerneck -17.5655 0.407151 -6.91415
upperneck 19.1833 1.00594 6.46969
head 8.81955 0.670269 3.48867
rclavicle 1.09978e-013 -6.52014e-014
rhumerus -47.9907 8.01178 -84.563
rradius 37.6614
rwrist 27.5633
rhand -28.3854 -13.3985
rfingers 7.12502
rthumb -1.75818 -43.371
lclavicle 1.09978e-013 -6.52014e-014
lhumerus -25.4832 -33.3236 97.3336
lradius 36.1778
lwrist -10.7146
lhand -40.9227 7.79955
lfingers 7.12502
lthumb -13.8571 37.3179
rfemur -25.4656 -10.9837 17.6445
rtibia 35.3405
rfoot -0.407646 4.9225
rtoes -14.6144
lfemur 30.483 3.15917 -12.767
ltibia 0
lfoot -23.435 -9.38423
ltoes -7.71883
382
root 6.55048 16.4838 26.9343 -9.67185 5.42226 -3.62275
lowerback 8.17161 -4.81572 -2.3392
upperback 2.76592 -6.51203 4.81709
thorax -0.853243 -3.3175 6.86665
lowerneck -17.5324 0.460683 -6.60586
upperneck 19.0543 1.11789 5.92626
head 8.76854 0.687243 3.25911
rclavicle -8.79249e-014 4.69132e-014
rhumerus -48.2097 7.84991 -84.2894
rradius 37.985
rwrist 26.7699
rhand -28.4337 -13.6614
rfingers 7.12502
rthumb -1.80475 -43.6335
lclavicle -8.79249e-014 4.69132e-014
lhumerus -25.0638 -34.419 97.264
lradius 37.3241
lwrist -10.0259
lhand -41.1199 7.54904
lfingers 7.12502
lthumb -14.0472 37.0543
rfemur -26.0721 -11.0595 17.4724
rtibia 35.2516
rfoot -0.299911 4.73998
rtoes -14.9556
lfemur 30.8394 2.80694 -12.8792
ltibia -1.90833e-014
lfoot -24.2218 -9.04436
ltoes -7.9243
383
root 6.50492 16.4484 27.0934 -9.00443 2.56696 -4.91646
lowerback 7.67085 -3.9319 -1.3433
upperback 2.70828 -5.24976 5.52822
thorax -0.828394 -2.68219 6.93323
lowerneck -17.6051 0.623834 -6.12419
upperneck 19.0615 1.30806 5.51088
head 8.77853 0.767451 3.0601
rclavicle -7.89299e-014 3.4191e-014
rhumerus -48.1612 6.61854 -83.3697
rradius 37.5679
rwrist 28.2151
rhand -28.8281 -13.2106
rfingers 7.12502
rthumb -2.18568 -43.1792
lclavicle -7.89299e-014 3.4191e-014
lhumerus -24.6949 -35.7505 97.1389
lradius 38.432
lwrist -9.54656
lhand -41.2736 7.79912
lfingers 7.12502
lthumb -14.1953 37.2941
rfemur -27.5966 -10.6386 19.8324
rtibia 35.1708
rfoot 0.271828 7.21345
rtoes -15.0855
lfemur 31.334 5.3847 -11.0844
ltibia -9.22361e-014
lfoot -25.2486 -8.65989
ltoes -8.17753
384
root 6.48978 16.4063 27.2594 -8.77893 2.73811 -4.6802
lowerback 7.59163 -3.9461 -1.73214
upperback 2.6662 -5.2974 5.59402
thorax -0.778931 -2.7107 7.22252
lowerneck -17.6735 0.722583 -5.86827
upperneck 18.9277 1.40824 5.38879
head 8.74192 0.822007 2.98551
rclavicle 1.34366e-013 -4.53229e-014
rhumerus -47.9456 6.33732 -83.2492
rradius 37.4674
rwrist 26.975
rhand -28.6046 -13.6706
rfingers 7.12502
rthumb -1.9698 -43.6413
lclavicle 1.34366e-013 -4.53229e-014
lhumerus -24.1896 -36.8499 96.87
lradius 39.2654
lwrist -9.04625
lhand -41.4666 7.66851
lfingers 7.12502
lthumb -14.3812 37.1503
rfemur -28.0295 -10.3301 19.4419
rtibia 35.418
rfoot 0.822651 7.38585
rtoes -14.74
lfemur 31.74 5.17783 -11.2817
ltibia 1.20861e-013
lfoot -25.8631 -8.48524
ltoes -8.30184
385
root 6.51608 16.3967 27.4299 -8.92607 6.26303 -3.81929
lowerback 8.17199 -4.99545 -2.07565
upperback 2.33486 -6.71086 5.16394
thorax -1.26266 -3.39792 7.1267
lowerneck -17.5376 0.756131 -5.57088
upperneck 18.8442 1.403 5.22734
head 8.69341 0.823206 2.87607
rclavicle 6.51268e-014 0
rhumerus -47.6807 3.97787 -81.5217
rradius 35.3899
rwrist 33.2
rhand -29.9109 -12.6251
rfingers 7.12502
rthumb -3.23145 -42.5804
lclavicle 6.51268e-014 0
lhumerus -23.8604 -37.5831 96.8484
lradius 39.6769
lwrist -8.98124
lhand -41.6877 7.34725
lfingers 7.12502
lthumb -14.5943 36.8138
rfemur -27.2771 -11.1725 17.4223
rtibia 35.7711
rfoot 1.40886 5.61563
rtoes -15.526
lfemur 31.7753 1.69922 -12.5543
ltibia 7.63333e-014
lfoot -26.0023 -8.56365
ltoes -8.46888
386
root 6.48873 16.3178 27.6009 -8.75203 6.44506 -3.63344
lowerback 8.06701 -5.00388 -2.47283
upperback 2.32519 -6.75483 5.27052
thorax -1.14799 -3.42689 7.45461
lowerneck -17.6451 0.850853 -5.36241
upperneck 18.7987 1.50117 5.14653
head 8.69388 0.877172 2.82621
rclavicle -5.14355e-014 5.24792e-014
rhumerus -47.1295 3.35322 -81.2774
rradius 34.8518
rwrist 31.3829
rhand -29.1844 -12.9773
rfingers 7.12502
rthumb -2.52975 -42.942
lclavicle -5.14355e-014 5.24792e-014
lhumerus -23.1428 -37.796 96.5623
lradius 39.7451
lwrist -9.25171
lhand -41.94 7.19628
lfingers 7.12502
lthumb -14.8373 36.6451
rfemur -27.6649 -10.8138 17.1554
rtibia 36.5983
rfoot 2.71813 6.57863
rtoes -15.7671
lfemur 32.2743 1.40857 -12.5862
ltibia 1.59028e-014
lfoot -26.5019 -8.53876
ltoes -8.73405
387
root 6.46873 16.2782 27.7833 -8.50559 6.6261 -3.60421
lowerback 7.87202 -5.13769 -2.62211
upperback 2.17843 -6.94176 5.37443
thorax -1.13432 -3.52028 7.64801
lowerneck -17.7187 1.0085 -5.14975
upperneck 19.0401 1.67067 5.09248
head 8.78182 0.965051 2.79966
rclavicle 4.30617e-014 9.54166e-015
rhumerus -46.6213 2.30518 -80.6334
rradius 33.677
rwrist 31.738
rhand -28.6153 -13.1594
rfingers 7.12502
rthumb -1.9802 -43.1299
lclavicle 4.30617e-014 9.54166e-015
lhumerus -22.6756 -37.095 96.3876
lradius 39.3354
lwrist -9.92604
lhand -42.1009 6.55319
lfingers 7.12502
lthumb -14.9924 35.9905
rfemur -27.9438 -10.941 17.1416
rtibia 37.5628
rfoot 3.34116 7.91951
rtoes -14.4583
lfemur 32.6728 1.11616 -12.4875
ltibia 5.725e-014
lfoot -26.8164 -8.55698
ltoes -9.31585
